<?xml version="1.0" encoding="UTF-8"?>
<!DOCTYPE svg PUBLIC "-//W3C//DTD SVG 1.1//EN" "http://www.w3.org/Graphics/SVG/1.1/DTD/svg11.dtd">
<!-- Creator: CorelDRAW -->
<svg xmlns="http://www.w3.org/2000/svg" xml:space="preserve" width="1391px" height="362px" version="1.1" style="shape-rendering:geometricPrecision; text-rendering:geometricPrecision; image-rendering:optimizeQuality; fill-rule:evenodd; clip-rule:evenodd"
viewBox="0 0 4260.01 1107.99"
 xmlns:xlink="http://www.w3.org/1999/xlink"
 xmlns:xodm="http://www.corel.com/coreldraw/odm/2003">
 <defs>
  <style type="text/css">
   <![CDATA[
    .fil0 {fill:#E80881}
   ]]>
  </style>
 </defs>
 <g id="Layer_x0020_1">
  <metadata id="CorelCorpID_0Corel-Layer"/>
  <path class="fil0" d="M1086.71 14.5c106.64,197.22 114.3,516.11 -42.57,676.55 -64.78,-202.83 -130.37,-520.65 -228.21,-680.53l-258.57 -2.28c124.02,265.83 100.68,441.7 -30.96,683.38 -32.83,-40.89 -215.15,-516.34 -155.5,-683.88l-370.9 0.07c124.12,285.01 97.83,204.73 199.83,526.73 53.98,170.4 127.61,379.88 165.68,551.26l216.84 1.24 191.39 -363.29c2.78,3.87 6.03,9.28 7.61,12.1l114.08 351.82 217.91 -4.04c104.2,-208.22 489.56,-785.29 232.28,-1060.35 -60.34,-22.28 -176.46,-21.68 -258.91,-8.78z"/>
  <path class="fil0" d="M2487.49 191.49c0,319.9 17.15,591.74 -24.93,896.44l310.95 -5.31c-53.67,-91.69 -31.8,-412.01 -29.96,-535.08l299.35 539.77 286.11 -4.36c-68.36,-120.24 -33.47,-884.71 -9.33,-1075.94l-305.73 1.36c41.98,142.44 32.85,394.93 26.16,550.23 -56.63,-119.13 -271.64,-444.99 -285.3,-549.64l-296.16 -0.78c16.32,55.86 28.84,114.65 28.84,183.31z"/>
  <path class="fil0" d="M3380.21 7.96c20.89,36.94 6.68,11.32 25.35,38.4 2.53,3.68 5.67,7.85 8.24,11.56 60.66,87.2 181.95,331.51 204.44,419.91 -119.96,127.55 -380.42,335.74 -191.62,630.16l316.71 -91.64c-189.59,-124.03 -185.62,-376.61 -103.98,-494.76 61.81,78.77 240.47,453.93 241.37,567.26l363.64 -6.74c-81.84,-83.29 -194.83,-301.96 -246.63,-468.13 155.42,-100.65 361.28,-338.47 208.6,-613.27 -85.88,-7.63 -236.66,48.53 -328.16,71.82 217.25,168.1 179.57,418.03 98.95,511.29 -64.21,-110.5 -234.3,-456.41 -239.98,-576.11l-356.93 0.25z"/>
  <path class="fil0" d="M1459.71 12.54c76.51,117.28 342.42,599.98 342.45,769.52 5.55,180.94 9.15,95.54 -31.78,305.25l310.72 1.05 -24.55 -181.03c-18.36,-272.08 233.13,-743.33 344.73,-893.6l-386.12 1.05c53.46,131.22 -34.76,318.01 -85.09,436.69 -34.59,-73.08 -130.86,-305.41 -102.27,-390.93 18.31,-54.75 0.45,-16.63 26.95,-37.41 -103.26,-29.72 -284.71,-22.04 -395.04,-10.59z"/>
 </g>
</svg>
