<?xml version="1.0" encoding="UTF-8"?>
<!DOCTYPE svg PUBLIC "-//W3C//DTD SVG 1.1//EN" "http://www.w3.org/Graphics/SVG/1.1/DTD/svg11.dtd">
<!-- Creator: CorelDRAW -->
<svg xmlns="http://www.w3.org/2000/svg" xml:space="preserve" width="3058px" height="3493px" version="1.1" style="shape-rendering:geometricPrecision; text-rendering:geometricPrecision; image-rendering:optimizeQuality; fill-rule:evenodd; clip-rule:evenodd"
viewBox="0 0 2860.28 3266.56"
 xmlns:xlink="http://www.w3.org/1999/xlink"
 xmlns:xodm="http://www.corel.com/coreldraw/odm/2003">
 <defs>
  <style type="text/css">
   <![CDATA[
    .str0 {stroke:#EC268F;stroke-width:11.05;stroke-miterlimit:22.9256}
    .str1 {stroke:#FFF212;stroke-width:22.09;stroke-miterlimit:22.9256}
    .str5 {stroke:black;stroke-width:22.09;stroke-miterlimit:22.9256}
    .str2 {stroke:#282829;stroke-width:2.21;stroke-miterlimit:22.9256}
    .str3 {stroke:#201E1E;stroke-width:2.21;stroke-miterlimit:22.9256}
    .str4 {stroke:#373435;stroke-width:5.52;stroke-linejoin:round;stroke-miterlimit:22.9256}
    .fil0 {fill:none}
    .fil4 {fill:#373435}
    .fil1 {fill:#FFF212}
    .fil8 {fill:#201E1E}
    .fil2 {fill:black}
    .fil5 {fill:#945743}
    .fil3 {fill:#9F6C5B}
    .fil6 {fill:#C29487}
    .fil7 {fill:#C29487}
   ]]>
  </style>
    <clipPath id="id0">
     <path d="M650.63 11.05l1722.7 0c261.75,0 475.9,214.15 475.9,475.9l0 2100.92c0,261.74 -214.15,475.9 -475.9,475.9l-1722.7 0c-261.75,0 -475.9,-214.16 -475.9,-475.9l0 -2100.92c0,-261.75 214.15,-475.9 475.9,-475.9z"/>
    </clipPath>
 </defs>
 <g id="Layer_x0020_1">
  <metadata id="CorelCorpID_0Corel-Layer"/>
  <g id="_2282720832688">
   <rect class="fil0 str0" x="90.55" y="104.58" width="2674.5" height="3052.72" rx="475.9" ry="475.9"/>
   <rect class="fil0 str1" x="11.05" y="202.79" width="2674.5" height="3052.72" rx="475.9" ry="475.9"/>
   <g>
   </g>
   <g style="clip-path:url(#id0)">
    <g>
     <g>
      <path class="fil1" d="M351.11 1510.05c-171.2,-52.54 1908.38,-1340.98 1908.19,-988.45 -0.26,466.96 -400.72,106.06 -530.41,440.35 -40.9,105.43 118.53,209.66 253.01,45.47 60.2,-73.5 304.64,-245.67 284.18,0 -10.21,122.6 -737.83,431.55 -889.65,527.81 -6.89,4.37 -528.56,262.73 -425.77,66.25 113.77,-217.48 202.87,-130.36 109.63,-153.44 -212.58,-52.61 -80.88,-100.36 -55.63,-119.41 116.93,-88.24 -417.34,309.74 -566.38,305.18 -122.07,-3.73 -103.4,-149.46 -87.17,-123.76z"/>
      <path class="fil2" d="M990.68 1703.43c-40.37,43.67 -190.63,15.45 -235.16,120.11 -14.67,34.47 -142.58,54.63 -203.59,102.51 -1.65,1.29 -275.98,107.17 -285.83,136.79 -43.59,131.07 -147.68,67.35 -147.49,198.92l1.42 977.34 2817.94 0 0 -985.22c0,-127.43 -372.87,-286.02 -521,-336.16 -46.85,-15.85 -63.23,-3.25 -136.59,-42.25 -60.71,-32.27 -41.05,7.81 -60.9,-38.74 -16.69,-39.13 -177.46,-97.64 -206.74,-118 -69.94,-48.63 -230.8,-108.49 -278.9,-25.75 -9.18,15.78 -107.42,17.44 -127.84,20.73 -37.29,-28.26 -347.34,-48.03 -422.23,-67 -86.03,-21.79 -25.29,27.41 -122.38,24.32 -29.9,-0.96 -51.99,11.12 -68.86,30.25 -0.59,0.74 -1.21,1.45 -1.85,2.15z"/>
      <path class="fil3" d="M1916.07 645.86c29.44,266.57 23.04,231.39 54.36,338.6 17.46,79.33 -12.29,89.07 -11,133.01 5.32,181.12 -51.94,275.05 -92.07,314.72 -6.51,81.18 -4.76,164.4 1.31,248.1 -28.13,51.1 30.56,78.07 1.03,130.69 -24.38,43.46 -135.98,115.52 -167.42,135.12 -56.72,35.37 -134.52,-7.52 -202.48,0.46 -54.14,6.36 -126.95,48.61 -181.72,23.15 -53.84,-25.02 -94.92,-126.02 -148.15,-177.37 -37.74,-36.4 3.97,-81.79 -36.33,-132.09 18.87,-119.95 25.8,-212.56 12.31,-306.83 -6.88,-48.13 -18.44,-80.91 -31.94,-122.01 -38.87,58.63 -126.77,-14.51 -132.32,-93.56 -39.04,-82.8 -15.18,-191.96 42.9,-180.46l14.14 -366.83 319.35 -250.39c18.84,-40.38 172.43,-36.82 425.13,25.9 76.22,64.53 132.15,147.33 132.9,279.79z"/>
      <path class="fil2 str2" d="M1128.25 572.04l16.49 130.29c-53.26,46.1 -77.02,144.65 -51.12,331.5 -32.92,-84.86 -46.05,-50.96 -69.07,-76.44l-46.38 -222.08c4.44,-64.63 -4.36,-135.18 13.16,-188.57 25.03,-76.25 83.2,-129.49 134.86,-182.86 49.6,-51.24 121.36,-110.1 195.44,-140.31 59.15,-24.12 113.16,-26.44 187.87,-37.19 80.48,3.68 163.79,49.71 239.86,97.39 101.42,73.88 148.11,193.85 165.95,338.11l3.74 51.06 -28.93 -94.41c-103.65,-321.46 -569.53,-275.02 -761.87,-6.49z"/>
      <path class="fil4" d="M978.17 735.31l150.08 -163.27 16.49 130.29c-60.55,51.71 -71.62,170.27 -51.12,331.5 -25.84,-25.76 -5.96,-55.87 -77.51,-77.28l-37.94 -221.24z"/>
      <path class="fil0 str3" d="M981.62 1109.3c-16.89,-125.42 8.09,-150.57 86.75,-47.15"/>
      <path class="fil5" d="M1181.89 1440.69c30.2,1.63 73.06,-4.19 100.92,6.14 47.76,17.7 118.82,0.48 157.94,-30.92 22.35,-17.94 77.6,-47.38 106.83,-47.38 51.54,0 100.3,-40.72 100,-40.4 -0.56,0.59 -16.05,28.59 -17.39,31.83 -0.62,0 49.53,-7.27 64.63,-20.51 3.72,-3.26 25.39,10.71 30.89,11.86 2.34,5.61 53.21,-3.75 56.76,6.31 7.04,19.96 17.48,76.02 41.51,66.03 -3.31,3.09 -11.02,29.84 -31.3,43.15 -1.8,1.18 -46.24,41.73 -46.22,46.92 0.06,16.19 13.73,31.86 32.48,31.21 2.34,-0.08 59.09,6.26 13.74,4.72 -7.21,-0.25 -30.03,9.54 -54.71,8.49 -0.46,-0.02 -68.43,37.37 -107.94,36.79 -28.87,-0.43 -41.64,11.19 -44.87,11.32 -1.51,0.06 -1.46,-6.21 -15.1,-7.55 -18.74,-1.84 -98.44,-30.39 -101.01,-6.6 -4.29,39.65 -8.87,4.17 30.34,52.34 12.93,15.87 24.43,9.22 -36.57,4.34 -83.26,-6.67 -141.88,-61 -199.9,-115.49 -46.28,-43.47 -16.58,-22.38 -44.72,-65.55 -5.03,-7.72 -33.54,-26.9 -36.31,-27.05z"/>
      <path class="fil0 str2" d="M1008.02 1129.49c2.53,45.28 28.92,27.66 43.38,41.5 7.6,24.86 23.89,10.68 35.83,16.03"/>
      <path class="fil0 str2" d="M1093.6 1071.91c-10.49,16.26 -18.49,0.91 -31.46,48.8 -4.33,18.43 15.19,30.36 22.78,45.54"/>
      <path class="fil0 str2" d="M1155.01 1340.59c31.23,75.03 109.28,139.89 217,198.29"/>
      <path class="fil0 str2" d="M1835.95 1444.1c-108.64,147.34 -245.55,176.91 -414.05,74.83"/>
      <path class="fil6" d="M1507.37 976.8c6.78,-6.25 40.08,-14.59 53.19,-22.12 24.13,-13.85 46.52,-20.19 74.81,-19.61 8.39,0.17 26.66,-3.69 25.48,-14.15 -4.72,-41.95 1.1,-14.43 -14.26,-34.53 -1.07,-1.39 -4.29,-36.33 -12.66,-41.46 -8.5,-5.21 11.5,-14.44 -27.51,-33.76 -0.65,-0.32 -6.85,-10.55 -14.06,1.65 -0.34,0.57 3.23,14.35 -3.87,21.65 -5.83,5.98 -0.44,34.01 0.81,41.36 2.48,14.56 -3.92,20.79 -11.29,33.84 -2.4,4.24 -19.19,15.87 -26.56,15.56 -7.3,-0.32 -33.22,10.7 -37.47,17.73 -4.22,6.99 -24.85,17.77 -15.98,34.78 3.26,6.27 3.96,6.94 10.27,-0.63l-0.9 -0.31z"/>
      <path class="fil7" d="M1177.73 1155.21c10.02,-83.36 -16.44,-121.85 81.98,-140.31 2.07,-0.39 48.67,-21.41 36.95,-19.03 -6.48,1.32 -101.93,-22.22 -30.1,-59.75 5.81,-3.04 -50.89,16.31 -62.5,9.68 -23.55,-13.44 -10.49,-2.64 -22.4,-6.77 -0.7,-2.01 0.25,-15.43 4.55,-15.79 4.85,-0.4 11.08,-48.2 6.37,-59.64 -20.37,-49.46 -7.5,-33.79 -0.62,-79.64 -10.02,5.57 0.71,19.99 -50.08,23.1 -21.13,1.29 -42.11,49.28 -34.36,72.17 5.86,17.32 4.81,49.3 -5.01,63.98 -14.15,21.14 9.34,80.51 -4.72,99.05 -0.16,0.21 1.64,58.17 1.64,66.56 0,23.91 -1.97,47.86 8.09,68.86 7.91,16.52 5.23,82.14 15.25,18.63 10.56,-66.86 20.07,-29.94 51.26,-36.31 2.83,-0.57 3.51,-3.28 3.7,-4.79z"/>
      <path class="fil2" d="M1536.77 1436.56c66.68,-28.09 35.71,-39.29 38.98,-50.93 98.02,51.89 13.52,-41.51 54.64,-0.37 13.67,13.67 2.39,-10.43 23.9,-13.04 7.09,-0.85 55.21,-3.58 20.45,3.61 -3.26,11.62 60.57,-16 61.2,-15.78 6.78,19.59 -14.13,17.25 7.42,15.66 8.46,-0.63 -8.23,-14.8 34.31,12.3 36.99,23.55 -7.5,8.97 10.04,4.67 14.82,-3.64 -19.4,32.47 26.07,23.2 11.94,-2.44 -1.38,-6.4 -0.12,22.95 0.03,0.85 -28.38,36.79 -33.37,33.25 -7.94,-5.66 -49.23,23.85 -51.52,12.78 -34.78,-7.19 -29.36,20.67 -54.64,4.43 -10.9,-7 -4.69,11.61 -17.79,-3.73 -9.27,-10.86 -38.65,12.97 -49.64,-9.18 -3.76,-7.58 -11.61,6.77 -20.08,-8.61 -14.16,-25.7 -6.46,-0.6 -25.46,-15.08 -4.52,-3.45 -25.78,-15.55 -24.39,-16.13z"/>
      <path class="fil7" d="M1861.8 848.41c8.99,-3.81 57.36,0.47 16.37,13.2 -1.3,11.28 25.17,6.21 35.98,24.49 5.85,9.88 9.54,16.26 -11.22,10.94 -26.58,-6.82 7.59,2.23 -5.05,19.99 -9.98,14.03 20.18,22 15.9,43.03 -4.33,21.27 43.23,-1.44 36.7,23.96 31.95,30.86 4.5,44.14 5.71,74.85 0.6,15.37 -14.99,66.28 10.57,4.34 10.43,-25.28 -2.14,-113.44 -17.99,-143.43 -8.62,-16.32 -20.46,-162.47 -26.21,-167.65 -3.77,-3.38 -49.83,-28.52 -21.18,-9.05 36.93,25.09 9.15,127.65 24.62,129.72 -4.81,0.53 -20.74,-48.55 -55.8,-23.59 -1.7,1.21 -7.26,-1.28 -8.4,-0.8z"/>
      <path class="fil8" d="M1080.49 1059.17c-4.4,28.13 -2.96,11.11 -22.48,29.32 -6.14,5.72 4.46,51.54 4.13,32.22 -0.04,-2.82 0.98,-11.23 8.01,-26.8 4.93,-10.9 28.61,-20.59 11.22,-33.71l-0.88 -1.03z"/>
      <path class="fil0 str4" d="M1123 1676.68c18.8,-1.16 -1.08,18.08 5.79,51.8 9.65,47.42 1.34,36.2 15.79,75.16 14.3,38.57 44.5,-9.68 76.36,81.19 3.38,9.64 111.47,108.26 125.75,113.58 48.42,18.02 75.82,-21.63 116.63,-21.63 -0.48,0 79.37,-15.27 120.05,-15.27 0,-9.21 117.5,15.04 148.88,-12.84 12.51,-11.11 32.69,-11.13 56.31,-36.46 1.46,-1.57 56.68,-25.38 67.95,-47.52 15.4,-30.24 47.32,-32.41 47.52,-87.58 0.21,-58.66 -25.12,-5.57 -12.24,-101.45"/>
      <image x="2149.53" y="2367.74" width="416.2" height="365.69" xlink:href="landing_sm_Images\landing_sm_ImgID1.png"/>
      <image x="733.79" y="2389.34" width="418.42" height="372.76" xlink:href="landing_sm_Images\landing_sm_ImgID2.png"/>
     </g>
    </g>
   </g>
   <path class="fil0 str5" d="M650.63 11.05l1722.7 0c261.75,0 475.9,214.15 475.9,475.9l0 2100.92c0,261.74 -214.15,475.9 -475.9,475.9l-1722.7 0c-261.75,0 -475.9,-214.16 -475.9,-475.9l0 -2100.92c0,-261.75 214.15,-475.9 475.9,-475.9z"/>
  </g>
 </g>
</svg>
